#!OML:ASF H:\Dans Jumps\Project 1\Capture day 1\Session 1\subject.ASF
:FULLY-SPECIFIED
:DEGREES
495
root 0.839692 17.7083 5.34019 3.41236 1.66206 -2.81727
lowerback -3.30528 0.698598 -0.0506527
upperback 1.19043 0.886163 1.66211
thorax 3.05016 0.424184 1.79032
lowerneck -9.77535 -0.864387 -1.56046
upperneck 35.1836 -1.64287 2.25563
head 13.5204 -0.61415 0.946173
rclavicle -1.01504e-014 -9.74045e-015
rhumerus -30.7964 -8.40985 -81.3993
rradius 35.946
rwrist 27.1008
rhand -23.9996 -23.5179
rfingers 7.12502
rthumb 2.47779 -53.4832
lclavicle -1.01504e-014 -9.74045e-015
lhumerus -41.5515 -13.2873 96.3137
lradius 28.1737
lwrist 25.5641
lhand -21.1663 -3.16521
lfingers 7.12502
lthumb 5.2138 26.7506
rfemur -11.9314 -3.11236 19.8805
rtibia 18.2976
rfoot -8.97048 0.674521
rtoes 17.557
lfemur -13.2929 6.24388 -17.8182
ltibia 19.8428
lfoot -6.81373 4.50345
ltoes 4.80439
496
root 0.840369 17.7196 5.34774 3.67439 1.67608 -2.70748
lowerback -3.01337 0.682201 -0.224953
upperback 1.27043 0.874277 1.62334
thorax 2.96651 0.415438 1.84382
lowerneck -10.0656 -0.841333 -1.49976
upperneck 35.0708 -1.59829 2.19615
head 13.5319 -0.593286 0.916148
rclavicle 1.24924e-014 1.2921e-015
rhumerus -30.4181 -8.75569 -81.1887
rradius 35.2801
rwrist 27.5563
rhand -24.1411 -23.5804
rfingers 7.12502
rthumb 2.34104 -53.5473
lclavicle 1.24924e-014 1.2921e-015
lhumerus -41.2951 -13.2805 96.3071
lradius 27.4124
lwrist 25.3523
lhand -21.1635 -2.9666
lfingers 7.12502
lthumb 5.21649 26.9492
rfemur -12.0696 -3.08385 19.7644
rtibia 18.0766
rfoot -8.84763 0.703674
rtoes 17.7842
lfemur -13.3497 6.18663 -17.9603
ltibia 19.4444
lfoot -6.62403 4.45995
ltoes 4.98753
497
root 0.839675 17.7286 5.35349 3.92919 1.68713 -2.57961
lowerback -2.70924 0.671188 -0.421899
upperback 1.35271 0.869591 1.57684
thorax 2.87791 0.409978 1.90242
lowerneck -10.2828 -0.820277 -1.40199
upperneck 34.8882 -1.55654 2.11048
head 13.4959 -0.572922 0.868294
rclavicle -1.29831e-015 1.41137e-014
rhumerus -29.9594 -9.28128 -80.9349
rradius 34.4471
rwrist 28.227
rhand -24.258 -23.6458
rfingers 7.12502
rthumb 2.2282 -53.6139
lclavicle -1.29831e-015 1.41137e-014
lhumerus -40.9164 -13.1182 96.1573
lradius 26.5475
lwrist 24.7955
lhand -21.1468 -2.79353
lfingers 7.12502
lthumb 5.23262 27.1219
rfemur -12.2677 -3.00912 19.635
rtibia 17.9785
rfoot -8.78434 0.664533
rtoes 17.9565
lfemur -13.4504 6.13095 -18.1174
ltibia 19.1362
lfoot -6.47795 4.43219
ltoes 5.1244
498
root 0.838003 17.7352 5.35853 4.19235 1.6877 -2.46936
lowerback -2.4226 0.669515 -0.601373
upperback 1.42886 0.875411 1.5318
thorax 2.79273 0.410124 1.9535
lowerneck -10.4217 -0.801607 -1.28341
upperneck 34.64 -1.51884 2.01155
head 13.4138 -0.554108 0.810678
rclavicle 8.44835e-015 6.4605e-015
rhumerus -29.4575 -10.0115 -80.6306
rradius 33.4744
rwrist 29.129
rhand -24.3405 -23.7273
rfingers 7.12502
rthumb 2.14849 -53.6962
lclavicle 8.44835e-015 6.4605e-015
lhumerus -40.4406 -12.7715 95.8546
lradius 25.6017
lwrist 23.7977
lhand -21.0944 -2.69531
lfingers 7.12502
lthumb 5.28318 27.2188
rfemur -12.5325 -2.89216 19.5308
rtibia 17.9734
rfoot -8.74782 0.572626
rtoes 18.0774
lfemur -13.6149 6.10282 -18.2563
ltibia 18.9237
lfoot -6.37379 4.41879
ltoes 5.16635
499
root 0.835709 17.7397 5.3637 4.48173 1.66831 -2.39549
lowerback -2.1852 0.67831 -0.744868
upperback 1.49436 0.892727 1.49576
thorax 2.72424 0.416563 1.99481
lowerneck -10.497 -0.7886 -1.17748
upperneck 34.3531 -1.49124 1.92625
head 13.3021 -0.540215 0.759386
rclavicle 7.92033e-015 5.96354e-015
rhumerus -28.9483 -10.952 -80.2742
rradius 32.411
rwrist 30.2349
rhand -24.3585 -23.8445
rfingers 7.12502
rthumb 2.1311 -53.8136
lclavicle 7.92033e-015 5.96354e-015
lhumerus -39.894 -12.206 95.3955
lradius 24.598
lwrist 22.271
lhand -21.052 -2.69911
lfingers 7.12502
lthumb 5.32414 27.214
rfemur -12.8635 -2.72596 19.4717
rtibia 18.0198
rfoot -8.71307 0.433333
rtoes 18.1323
lfemur -13.8614 6.10187 -18.3593
ltibia 18.8088
lfoot -6.30694 4.43609
ltoes 5.10495
500
root 0.833736 17.7429 5.37027 4.79723 1.62624 -2.37849
lowerback -2.02074 0.698628 -0.820168
upperback 1.5566 0.922343 1.47133
thorax 2.69378 0.430026 2.01133
lowerneck -10.5494 -0.773732 -1.08418
upperneck 34.0637 -1.46383 1.85785
head 13.1855 -0.526078 0.71732
rclavicle 6.74004e-015 3.62782e-015
rhumerus -28.4452 -12.1101 -79.8724
rradius 31.2933
rwrist 31.4945
rhand -24.3234 -23.9955
rfingers 7.12502
rthumb 2.16507 -53.9643
lclavicle 6.74004e-015 3.62782e-015
lhumerus -39.2937 -11.4126 94.7818
lradius 23.5624
lwrist 20.1913
lhand -21.0382 -2.78545
lfingers 7.12502
lthumb 5.33744 27.1273
rfemur -13.2333 -2.53145 19.4759
rtibia 18.0739
rfoot -8.66653 0.27834
rtoes 18.1275
lfemur -14.1798 6.11772 -18.406
ltibia 18.7862
lfoot -6.27672 4.49973
ltoes 4.97052
501
root 0.832723 17.7456 5.37867 5.13243 1.55953 -2.40747
lowerback -1.92404 0.730778 -0.831605
upperback 1.60887 0.96548 1.45531
thorax 2.69145 0.45118 2.00209
lowerneck -10.5667 -0.764148 -1.01888
upperneck 33.7921 -1.44716 1.81697
head 13.0706 -0.516854 0.689953
rclavicle 1.9512e-014 2.15681e-014
rhumerus -27.9927 -13.4663 -79.4244
rradius 30.164
rwrist 32.8399
rhand -24.2605 -24.1509
rfingers 7.12502
rthumb 2.22577 -54.1191
lclavicle 1.9512e-014 2.15681e-014
lhumerus -38.6925 -10.397 94.0368
lradius 22.5244
lwrist 17.5989
lhand -21.1187 -2.96526
lfingers 7.12502
lthumb 5.25969 26.9495
rfemur -13.6161 -2.3299 19.5282
rtibia 18.1085
rfoot -8.605 0.137564
rtoes 18.0801
lfemur -14.5466 6.13136 -18.4077
ltibia 18.8354
lfoot -6.2745 4.62002
ltoes 4.81063
502
root 0.832866 17.7484 5.38928 5.4727 1.46942 -2.47386
lowerback -1.88564 0.773925 -0.784224
upperback 1.65775 1.0214 1.4448
thorax 2.71886 0.479561 1.96689
lowerneck -10.5769 -0.76081 -0.990381
upperneck 33.5631 -1.44219 1.80858
head 12.9741 -0.513131 0.680603
rclavicle -9.57894e-015 -1.92821e-014
rhumerus -27.6083 -14.9802 -78.9423
rradius 29.0651
rwrist 34.1839
rhand -24.1983 -24.2872
rfingers 7.12502
rthumb 2.28586 -54.2547
lclavicle -9.57894e-015 -1.92821e-014
lhumerus -38.117 -9.20339 93.1896
lradius 21.5192
lwrist 14.6192
lhand -21.3221 -3.16632
lfingers 7.12502
lthumb 5.06331 26.7532
rfemur -13.9825 -2.13291 19.6176
rtibia 18.1064
rfoot -8.53171 0.0248969
rtoes 18.0025
lfemur -14.928 6.1371 -18.371
ltibia 18.929
lfoot -6.29216 4.78748
ltoes 4.6546
503
root 0.834136 17.7516 5.40178 5.80206 1.36366 -2.55805
lowerback -1.88028 0.82474 -0.69535
upperback 1.70339 1.08634 1.43272
thorax 2.76208 0.513195 1.90771
lowerneck -10.5904 -0.766786 -0.99919
upperneck 33.3955 -1.45336 1.83247
head 12.9059 -0.516783 0.688615
rclavicle -1.29459e-014 -4.96962e-015
rhumerus -27.3205 -16.5777 -78.4416
rradius 28.0395
rwrist 35.4401
rhand -24.1643 -24.402
rfingers 7.12502
rthumb 2.31869 -54.3692
lclavicle -1.29459e-014 -4.96962e-015
lhumerus -37.606 -7.88718 92.2769
lradius 20.5727
lwrist 11.4275
lhand -21.6914 -3.43357
lfingers 7.12502
lthumb 4.7068 26.4941
rfemur -14.3119 -1.96051 19.7221
rtibia 18.0679
rfoot -8.45646 -0.0469144
rtoes 17.9025
lfemur -15.2892 6.13291 -18.315
ltibia 19.0326
lfoot -6.31758 4.98082
ltoes 4.53122
504
root 0.836107 17.7551 5.41557 6.10535 1.24481 -2.65194
lowerback -1.87763 0.88135 -0.578173
upperback 1.74429 1.15817 1.41814
thorax 2.80251 0.550977 1.83041
lowerneck -10.604 -0.777597 -1.01585
upperneck 33.2817 -1.47133 1.85889
head 12.8612 -0.523842 0.698433
rclavicle -8.25578e-015 9.59136e-015
rhumerus -27.137 -18.1826 -77.9372
rradius 27.1081
rwrist 36.551
rhand -24.1684 -24.5086
rfingers 7.12502
rthumb 2.31472 -54.4758
lclavicle -8.25578e-015 9.59136e-015
lhumerus -37.1824 -6.54043 91.3482
lradius 19.7258
lwrist 8.29402
lhand -22.194 -3.70318
lfingers 7.12502
lthumb 4.2214 26.2347
rfemur -14.5883 -1.81455 19.8342
rtibia 17.9938
rfoot -8.38315 -0.0793663
rtoes 17.7909
lfemur -15.6056 6.12861 -18.2457
ltibia 19.1219
lfoot -6.33917 5.17773
ltoes 4.43144
505
root 0.838346 17.7589 5.4306 6.37625 1.11577 -2.73083
lowerback -1.86623 0.938863 -0.464022
upperback 1.78318 1.23151 1.3953
thorax 2.83636 0.589671 1.74623
lowerneck -10.6306 -0.790024 -1.04216
upperneck 33.2245 -1.49243 1.89207
head 12.8436 -0.532317 0.712506
rclavicle 1.99157e-014 1.55301e-014
rhumerus -27.0469 -19.719 -77.4527
rradius 26.28
rwrist 37.4751
rhand -24.194 -24.6271
rfingers 7.12502
rthumb 2.29004 -54.5946
lclavicle 1.99157e-014 1.55301e-014
lhumerus -36.8573 -5.27232 90.4643
lradius 19.0085
lwrist 5.52423
lhand -22.805 -3.96503
lfingers 7.12502
lthumb 3.63139 25.9838
rfemur -14.8082 -1.70757 19.928
rtibia 17.8943
rfoot -8.31908 -0.0658736
rtoes 17.6699
lfemur -15.8615 6.13616 -18.1892
ltibia 19.1778
lfoot -6.355 5.35588
ltoes 4.34834
506
root 0.840276 17.7627 5.44666 6.60609 0.98327 -2.80615
lowerback -1.82823 0.996212 -0.345212
upperback 1.81939 1.30474 1.36682
thorax 2.85302 0.628657 1.65308
lowerneck -10.677 -0.801298 -1.0786
upperneck 33.2245 -1.51385 1.93619
head 12.8547 -0.54043 0.732931
rclavicle 1.39615e-014 6.16232e-015
rhumerus -27.042 -21.112 -77.0072
rradius 25.5592
rwrist 38.1872
rhand -24.2325 -24.782
rfingers 7.12502
rthumb 2.2528 -54.7499
lclavicle 1.39615e-014 6.16232e-015
lhumerus -36.6285 -4.19752 89.6835
lradius 18.4628
lwrist 3.43588
lhand -23.3835 -4.11218
lfingers 7.12502
lthumb 3.07271 25.8454
rfemur -14.9654 -1.6349 20.0178
rtibia 17.7752
rfoot -8.26809 -0.0157475
rtoes 17.5638
lfemur -16.0468 6.16626 -18.1304
ltibia 19.1935
lfoot -6.36677 5.49584
ltoes 4.26616
507
root 0.841417 17.7665 5.4633 6.79728 0.849449 -2.85882
lowerback -1.75627 1.0496 -0.251861
upperback 1.85177 1.37386 1.33312
thorax 2.84665 0.665329 1.56785
lowerneck -10.7502 -0.81141 -1.12976
upperneck 33.2763 -1.53387 1.98969
head 12.8939 -0.548191 0.760136
rclavicle -1.95679e-015 7.11898e-015
rhumerus -27.089 -22.3043 -76.6162
rradius 24.9269
rwrist 38.6942
rhand -24.2598 -24.9775
rfingers 7.12502
rthumb 2.22649 -54.9456
lclavicle -1.95679e-015 7.11898e-015
lhumerus -36.4982 -3.40418 89.0672
lradius 18.1006
lwrist 2.21274
lhand -23.9306 -4.21183
lfingers 7.12502
lthumb 2.54434 25.7527
rfemur -15.071 -1.5876 20.0831
rtibia 17.6503
rfoot -8.23058 0.06045
rtoes 17.4932
lfemur -16.1636 6.21535 -18.0889
ltibia 19.1624
lfoot -6.37268 5.59697
ltoes 4.18898
